# xmcd
#
# Track frame offsets:
#	150
#	30171
#	50326
#	73758
#	96326
#	123969
#	142289
#	170803
#
# Disc length: 2578 seconds
#
# Revision: 0
# Processed by: cddbd v1.4PL0 Copyright (c) Steve Scherf et al.
# Submitted via: EasyCDDAExtractor 4.5.0.2
#
DISCID=720a1008
DTITLE=Moein - Window
DYEAR=2002
DGENRE=Persian
TTITLE0=Panjareh
TTITLE1=Naji
TTITLE2=Ham Ghasam
TTITLE3=Be Didaram Bia
TTITLE4=Asheghaneh
TTITLE5=Gonah
TTITLE6=Hichki
TTITLE7=Doaa
EXTD=
EXTT0=
EXTT1=
EXTT2=
EXTT3=
EXTT4=
EXTT5=
EXTT6=
EXTT7=
PLAYORDER=
